<?xml version="1.0" encoding="utf-8"?>
<!-- Generator: Adobe Illustrator 27.0.0, SVG Export Plug-In . SVG Version: 6.00 Build 0)  -->
<svg version="1.1" id="Layer_1" xmlns="http://www.w3.org/2000/svg" xmlns:xlink="http://www.w3.org/1999/xlink" x="0px" y="0px"
	 viewBox="0 0 283.46 283.46" style="enable-background:new 0 0 283.46 283.46;" xml:space="preserve">
<style type="text/css">
	.st0{fill:#15455A;}
	.st1{fill:#08AE2C;}
</style>
<g>
	<g>
		<path class="st0" d="M39.39,146.59H29.33v-40.11c0,0,0.8-11.17,13.01-13.5h49.79v9.71H43.77c0,0-3.03,0.21-4.31,3.58v8.84h52.67
			v9.67H39.49L39.39,146.59z"/>
		<path class="st0" d="M97.73,146.59l11.34-43.11c0,0,4.14-10.16,12.56-10.23h18.61c0,0,7.65,0.35,11.69,11.48l10.79,41.85h-10.85
			l-5.29-21.88H118.4l2.23-9.81h23.1l-1.84-8.07c0,0-1.01-3.97-4.28-4.04h-14.13c0,0-3.62-0.35-5.01,4.94l-10.16,38.86H97.73z"/>
		<g>
			<path class="st0" d="M231.03,102.49h-48.06c0,0-4.31,0.51-4.69,4.27v26.53c0,0-0.28,3.99,4.82,3.85h49.26l8.07,9.45h-59.52
				c0,0-10.85-1.24-12.57-13.26v-26.86c0,0,0.19-11.5,13.5-13.22h49.03L231.03,102.49z"/>
			<path class="st1" d="M233.76,102.48v-9.23h8.21c0,0,10.99,1.48,12.15,12.57v40.76h-9.83V106.1c0,0,0.01-0.28-0.08-0.69
				c0,0-0.16-0.78-0.68-1.45c-0.98-1.29-3.01-1.47-3.1-1.48c-0.57-0.06-1.16-0.11-1.77-0.14
				C236.89,102.26,235.24,102.33,233.76,102.48z"/>
			<rect x="197.72" y="112.09" class="st1" width="30.43" height="1.95"/>
			<rect x="194.43" y="118.85" class="st1" width="37.02" height="1.95"/>
			<rect x="191.27" y="125.67" class="st1" width="16.05" height="1.95"/>
			<rect x="212.1" y="125.67" class="st1" width="16.05" height="1.95"/>
			<circle class="st1" cx="192.2" cy="113.06" r="1.16"/>
			<circle class="st1" cx="195.54" cy="113.06" r="1.16"/>
			<circle class="st1" cx="230.47" cy="113.06" r="1.16"/>
			<circle class="st1" cx="230.47" cy="126.64" r="1.16"/>
			<circle class="st1" cx="209.71" cy="126.64" r="1.16"/>
			<circle class="st1" cx="192.2" cy="119.83" r="1.16"/>
		</g>
	</g>
	<g>
		<g>
			<g>
				<path class="st0" d="M37.08,156.49l-0.1,1.42h-3.74c-0.66,0-0.89,0.22-0.89,0.86v1.99h4.07v1.46h-4.07v4.49h-1.89v-8.33
					c0-1.31,0.87-2.04,2.22-2.04C34.14,156.36,35.76,156.36,37.08,156.49z"/>
				<path class="st0" d="M38.67,166.73v-10.34h1.87v10.34H38.67z"/>
				<path class="st0" d="M50.2,159.29c0,1.54-0.5,2.42-1.93,2.6v0.08c0.5,0.12,1.1,0.55,1.38,1.52l0.93,3.24h-2l-0.83-3.21
					c-0.18-0.7-0.56-0.93-1.19-0.93l-1.86-0.01v4.15h-1.86v-10.34c1.19-0.11,2-0.13,3.77-0.13C49.16,156.25,50.2,156.93,50.2,159.29
					z M44.71,161.04h1.86c1.31,0,1.74-0.37,1.74-1.65c0-1.27-0.43-1.6-1.74-1.6h-1.86V161.04z"/>
				<path class="st0" d="M58.64,156.55l-0.12,1.33c-0.85-0.03-2.05-0.06-3.07-0.06c-1.26,0-1.71,0.08-1.71,1.18
					c0,0.92,0.34,1.13,1.15,1.38l1.98,0.62c1.64,0.52,2.13,1.5,2.13,3.01c0,2.35-1.02,2.89-3.66,2.89c-0.63,0-1.86-0.03-3.36-0.32
					l0.12-1.38c1.96,0.04,2.57,0.06,3.28,0.06c1.34,0,1.71-0.19,1.71-1.26c0-0.95-0.34-1.13-1.09-1.37l-2.08-0.66
					c-1.52-0.48-2.08-1.46-2.08-2.99c0-2.36,1.08-2.78,3.55-2.78C56.37,156.2,57.53,156.27,58.64,156.55z"/>
				<path class="st0" d="M65.03,158v8.73h-1.89V158h-3.16v-1.61h8.24V158H65.03z"/>
				<path class="st0" d="M76.75,156.38c0.31,0,0.57,0.19,0.67,0.5l3.1,9.84h-1.92l-0.86-2.93h-3.83l-0.85,2.93h-1.92l3.09-9.84
					c0.11-0.31,0.37-0.5,0.68-0.5H76.75z M75.39,158.69l-1.03,3.58h2.94l-1.03-3.58c-0.08-0.28-0.18-0.59-0.22-0.89h-0.4
					L75.39,158.69z"/>
				<path class="st0" d="M90.15,166.03c0,0.46-0.24,0.69-0.68,0.69h-1.49c-0.4,0-0.59-0.18-0.77-0.57l-2.91-6.33
					c-0.19-0.43-0.5-1.06-0.62-1.55h-0.18c0.08,0.53,0.09,1.05,0.09,1.56v6.89h-1.84v-9.65c0-0.45,0.26-0.7,0.71-0.7h1.45
					c0.41,0,0.61,0.19,0.78,0.57l2.81,6.16c0.21,0.45,0.49,1.08,0.73,1.64h0.18c-0.04-0.57-0.08-1.13-0.08-1.68v-6.69h1.83V166.03z"
					/>
				<path class="st0" d="M98.82,156.55l-0.12,1.33c-0.85-0.03-2.05-0.06-3.07-0.06c-1.26,0-1.71,0.08-1.71,1.18
					c0,0.92,0.34,1.13,1.15,1.38l1.98,0.62c1.64,0.52,2.13,1.5,2.13,3.01c0,2.35-1.02,2.89-3.66,2.89c-0.63,0-1.86-0.03-3.36-0.32
					l0.12-1.38c1.96,0.04,2.57,0.06,3.28,0.06c1.34,0,1.71-0.19,1.71-1.26c0-0.95-0.34-1.13-1.09-1.37l-2.08-0.66
					c-1.52-0.48-2.08-1.46-2.08-2.99c0-2.36,1.08-2.78,3.55-2.78C96.56,156.2,97.72,156.27,98.82,156.55z"/>
				<path class="st0" d="M112.03,166.2c-0.06,0.31-0.35,0.53-0.69,0.53h-1.96c-0.34,0-0.63-0.21-0.68-0.54l-1.3-7.21
					c-0.08-0.4-0.15-0.81-0.2-1.22h-0.3c-0.06,0.41-0.11,0.83-0.19,1.22l-1.29,7.21c-0.06,0.32-0.36,0.54-0.71,0.54h-1.95
					c-0.34,0-0.63-0.21-0.68-0.53l-1.78-9.82h1.95l1.22,7.54c0.08,0.44,0.12,0.89,0.17,1.41h0.31c0.08-0.49,0.15-0.96,0.24-1.41
					l1.28-6.94c0.06-0.36,0.31-0.61,0.69-0.61h1.83c0.34,0,0.61,0.25,0.67,0.61l1.27,6.95c0.09,0.47,0.17,0.95,0.21,1.4h0.34
					c0.06-0.45,0.09-0.95,0.16-1.38l1.24-7.58h1.95L112.03,166.2z"/>
				<path class="st0" d="M122.08,156.47l-0.09,1.45h-4.05c-0.54,0-0.75,0.22-0.75,0.86v1.82h4.25v1.45h-4.25v2.3
					c0,0.65,0.21,0.87,0.75,0.87h4.05l0.09,1.42c-1.36,0.12-3.04,0.12-4.55,0.12c-1.37,0-2.22-0.75-2.22-1.96v-6.48
					c0-1.21,0.86-1.96,2.22-1.96C119.04,156.36,120.72,156.36,122.08,156.47z"/>
				<path class="st0" d="M131.26,159.29c0,1.54-0.5,2.42-1.93,2.6v0.08c0.5,0.12,1.1,0.55,1.38,1.52l0.93,3.24h-1.99l-0.83-3.21
					c-0.18-0.7-0.56-0.93-1.19-0.93l-1.86-0.01v4.15h-1.86v-10.34c1.19-0.11,1.99-0.13,3.77-0.13
					C130.22,156.25,131.26,156.93,131.26,159.29z M125.77,161.04h1.86c1.31,0,1.74-0.37,1.74-1.65c0-1.27-0.43-1.6-1.74-1.6h-1.86
					V161.04z"/>
				<path class="st0" d="M142.45,156.49l-0.1,1.42h-3.74c-0.66,0-0.89,0.22-0.89,0.86v1.99h4.07v1.46h-4.07v4.49h-1.89v-8.33
					c0-1.31,0.87-2.04,2.22-2.04C139.52,156.36,141.14,156.36,142.45,156.49z"/>
				<path class="st0" d="M152.21,161.56c0,4.1-1.11,5.36-4.27,5.36c-3.15,0-4.26-1.26-4.26-5.36c0-4.11,1.11-5.37,4.26-5.37
					C151.1,156.19,152.21,157.45,152.21,161.56z M145.66,161.56c0,2.87,0.54,3.75,2.29,3.75c1.75,0,2.29-0.89,2.29-3.75
					c0-2.88-0.54-3.77-2.29-3.77C146.2,157.79,145.66,158.68,145.66,161.56z"/>
				<path class="st0" d="M161.5,159.29c0,1.54-0.5,2.42-1.93,2.6v0.08c0.5,0.12,1.1,0.55,1.38,1.52l0.93,3.24h-1.99l-0.83-3.21
					c-0.18-0.7-0.56-0.93-1.19-0.93l-1.86-0.01v4.15h-1.86v-10.34c1.19-0.11,1.99-0.13,3.77-0.13
					C160.46,156.25,161.5,156.93,161.5,159.29z M156.01,161.04h1.86c1.31,0,1.74-0.37,1.74-1.65c0-1.27-0.43-1.6-1.74-1.6h-1.86
					V161.04z"/>
				<path class="st0" d="M172.92,156.54l-0.18,1.42c-0.93-0.08-1.54-0.11-2.78-0.11c-1.71,0-2.24,0.87-2.24,3.71
					c0,2.82,0.53,3.7,2.24,3.7c1.31,0,2.12-0.03,3-0.15l0.17,1.4c-0.92,0.29-1.75,0.39-3.17,0.39c-3.1,0-4.21-1.41-4.21-5.35
					c0-3.94,1.11-5.36,4.21-5.36C171.34,156.2,172.03,156.29,172.92,156.54z"/>
				<path class="st0" d="M182.94,161.56c0,4.1-1.11,5.36-4.27,5.36c-3.15,0-4.26-1.26-4.26-5.36c0-4.11,1.11-5.37,4.26-5.37
					C181.83,156.19,182.94,157.45,182.94,161.56z M176.39,161.56c0,2.87,0.54,3.75,2.29,3.75s2.29-0.89,2.29-3.75
					c0-2.88-0.54-3.77-2.29-3.77S176.39,158.68,176.39,161.56z"/>
				<path class="st0" d="M193.29,166.03c0,0.46-0.24,0.69-0.68,0.69h-1.49c-0.4,0-0.59-0.18-0.77-0.57l-2.91-6.33
					c-0.19-0.43-0.5-1.06-0.62-1.55h-0.18c0.08,0.53,0.09,1.05,0.09,1.56v6.89h-1.84v-9.65c0-0.45,0.26-0.7,0.71-0.7h1.45
					c0.41,0,0.61,0.19,0.78,0.57l2.81,6.16c0.21,0.45,0.49,1.08,0.73,1.64h0.18c-0.04-0.57-0.08-1.13-0.08-1.68v-6.69h1.83V166.03z"
					/>
				<path class="st0" d="M201.96,156.55l-0.12,1.33c-0.85-0.03-2.05-0.06-3.07-0.06c-1.26,0-1.71,0.08-1.71,1.18
					c0,0.92,0.34,1.13,1.15,1.38l1.98,0.62c1.64,0.52,2.13,1.5,2.13,3.01c0,2.35-1.02,2.89-3.66,2.89c-0.63,0-1.86-0.03-3.36-0.32
					l0.12-1.38c1.96,0.04,2.57,0.06,3.28,0.06c1.34,0,1.71-0.19,1.71-1.26c0-0.95-0.34-1.13-1.09-1.37l-2.08-0.66
					c-1.52-0.48-2.08-1.46-2.08-2.99c0-2.36,1.08-2.78,3.55-2.78C199.7,156.2,200.85,156.27,201.96,156.55z"/>
				<path class="st0" d="M211.96,162.68c0,3.08-1.03,4.24-3.87,4.24c-2.95,0-4.03-1.15-4.03-4.24v-6.3h1.87v6.3
					c0,1.99,0.53,2.63,2.08,2.63c1.54,0,2.05-0.64,2.05-2.63v-6.3h1.89V162.68z"/>
				<path class="st0" d="M216.03,164.32c0,0.63,0.22,0.85,0.89,0.85h3.6l0.08,1.46c-1.3,0.11-2.71,0.13-4.1,0.13
					c-1.73,0-2.33-0.91-2.33-2.15v-8.23h1.87V164.32z"/>
				<path class="st0" d="M226.21,158v8.73h-1.89V158h-3.16v-1.61h8.24V158H226.21z"/>
				<path class="st0" d="M230.88,166.73v-10.34h1.87v10.34H230.88z"/>
				<path class="st0" d="M243.46,166.03c0,0.46-0.24,0.69-0.68,0.69h-1.49c-0.4,0-0.59-0.18-0.77-0.57l-2.91-6.33
					c-0.19-0.43-0.5-1.06-0.62-1.55h-0.18c0.08,0.53,0.09,1.05,0.09,1.56v6.89h-1.84v-9.65c0-0.45,0.26-0.7,0.71-0.7h1.45
					c0.41,0,0.61,0.19,0.78,0.57l2.81,6.16c0.21,0.45,0.49,1.08,0.73,1.64h0.18c-0.04-0.57-0.08-1.13-0.08-1.68v-6.69h1.83V166.03z"
					/>
				<path class="st0" d="M252.92,156.54l-0.16,1.39c-0.98-0.06-2.02-0.09-2.72-0.09c-1.96,0-2.66,0.4-2.66,3.78
					c0,2.77,0.47,3.69,1.86,3.69c0.85,0,1.55-0.32,2.17-0.72v-3.82h1.83v5.96h-1.39l-0.17-1.02c-0.55,0.53-1.6,1.21-3.03,1.21
					c-2.3,0-3.24-1.67-3.24-5.4c0-4.14,1.19-5.32,4.53-5.32C250.98,156.19,252,156.28,252.92,156.54z"/>
			</g>
		</g>
		<g>
			<path class="st0" d="M36.59,185.62v1.58h-2.59v-0.41c-0.13,0.23-0.5,0.38-1.09,0.43c-0.62,0.06-1.21-0.01-1.73-0.24
				c-0.69-0.29-1.13-0.85-1.33-1.69c-0.18-0.79-0.1-1.52,0.26-2.2c0.2-0.39,0.51-0.67,0.91-0.87c0.81-0.41,2.34-0.43,4.59-0.05v3.45
				H36.59z M33.99,183.31c-1.62-0.33-2.44,0.05-2.48,1.17c-0.02,0.5,0.1,0.88,0.37,1.17c0.23,0.25,0.52,0.37,0.87,0.37
				c0.33,0,0.62-0.11,0.87-0.32c0.27-0.24,0.37-0.54,0.37-0.92V183.31z"/>
			<path class="st0" d="M36.16,187.21v-1.58h4.59v1.58H36.16z"/>
			<path class="st0" d="M40.32,187.21v-1.58h4.59v1.58H40.32z"/>
			<path class="st0" d="M50.16,184.81c0,2.47-0.94,2.4-5.68,2.4v-1.58c1.24,0,2.84-0.01,2.96-0.02c0.46-0.02,0.73-0.19,0.81-0.52
				c0.03-0.15,0.05-0.88,0.05-2.21v-0.92h1.85V184.81z M46.68,188.53c0.15,0.08,0.27,0.19,0.36,0.36c0.08,0.16,0.13,0.35,0.14,0.53
				c-0.01,0.19-0.06,0.38-0.14,0.54c-0.09,0.16-0.2,0.27-0.36,0.37c-0.14,0.09-0.31,0.15-0.51,0.16c-0.18-0.01-0.37-0.06-0.53-0.16
				c-0.14-0.09-0.26-0.2-0.36-0.37s-0.14-0.35-0.14-0.54c0-0.18,0.04-0.37,0.14-0.53c0.1-0.16,0.22-0.28,0.36-0.36
				c0.16-0.1,0.34-0.15,0.53-0.16C46.37,188.38,46.54,188.44,46.68,188.53z M49.26,188.53c0.15,0.08,0.27,0.19,0.36,0.36
				c0.08,0.16,0.13,0.35,0.14,0.53c-0.01,0.19-0.06,0.38-0.14,0.54c-0.09,0.16-0.2,0.27-0.36,0.37c-0.14,0.09-0.31,0.15-0.51,0.16
				c-0.18-0.01-0.37-0.06-0.53-0.16c-0.14-0.09-0.26-0.2-0.36-0.37c-0.1-0.16-0.14-0.35-0.14-0.54c0-0.18,0.04-0.37,0.14-0.53
				c0.1-0.16,0.22-0.28,0.36-0.36c0.16-0.1,0.34-0.15,0.53-0.16C48.94,188.38,49.12,188.44,49.26,188.53z"/>
			<path class="st0" d="M54.14,187.53c0,0.44-0.08,0.8-0.22,1.08c-0.14,0.28-0.37,0.48-0.68,0.61c-0.31,0.13-0.72,0.19-1.24,0.19
				c-0.17,0-0.32-0.01-0.45-0.02c-0.13-0.01-0.28-0.04-0.44-0.08c-0.16-0.03-0.33-0.08-0.52-0.14l0.27-1.24l0.22,0.06
				c0.1,0.03,0.18,0.04,0.28,0.05c0.09,0.01,0.17,0.01,0.25,0.01c0.16,0.01,0.28-0.01,0.38-0.05c0.1-0.03,0.16-0.1,0.2-0.18
				c0.05-0.1,0.08-0.23,0.08-0.39v-5.5h1.87V187.53z"/>
			<path class="st0" d="M55,187.21v-9.95h1.87v9.95H55z"/>
			<path class="st0" d="M59.88,181.95c1.64-0.08,2.66,0.37,3.07,1.4c0.19,0.51,0.29,1.79,0.28,3.86h-5.5v-1.58h3.66
				c0.08-1.02,0-1.68-0.25-1.97c-0.38-0.43-1.25-0.56-2.63-0.4l-0.02-1.24L59.88,181.95z"/>
			<path class="st0" d="M68.96,183.71c0,1.42-0.27,2.37-0.79,2.87c-0.43,0.41-1.19,0.64-2.3,0.64h-1.31l-0.47-1.58h1.13
				c1.26,0,1.86-0.54,1.86-1.62v-6.76h1.87V183.71z M65.76,188.13l0.2,0.02c0.05,0.02,0.12,0.04,0.18,0.05l-0.13,0.53
				c-0.05-0.03-0.11-0.05-0.16-0.06c-0.05-0.02-0.13-0.03-0.2-0.03c-0.09,0-0.16,0.01-0.22,0.04c-0.08,0.02-0.13,0.04-0.16,0.08
				c-0.03,0.05-0.04,0.11-0.05,0.16c-0.01,0.05-0.02,0.12-0.02,0.17c0,0.1,0.02,0.18,0.05,0.26c0.01,0.06,0.06,0.11,0.15,0.14
				c0.08,0.04,0.17,0.06,0.29,0.06c0.05,0,0.11-0.01,0.16-0.02l0.25-0.03l0.14-0.03l-0.13,0.52l-0.57,0.08c-0.32,0-0.87,0.02-1.38,0
				v-0.6l0.39-0.04c-0.02-0.1-0.03-0.2-0.03-0.35c0-0.1,0.01-0.2,0.04-0.32c0.03-0.12,0.1-0.23,0.17-0.32
				c0.09-0.09,0.19-0.16,0.31-0.22c0.12-0.06,0.28-0.1,0.47-0.1C65.6,188.11,65.68,188.12,65.76,188.13z M64.21,184.88v-7.65h1.87
				v7.65H64.21z"/>
			<path class="st0" d="M69.83,187.21v-9.95h1.87v9.95H69.83z"/>
			<path class="st0" d="M86,184.81c0,1.11-0.4,1.8-1.08,2.11c-0.4,0.18-1.26,0.29-2.59,0.29h-4.28c-1.1,0-1.85-0.22-2.28-0.63
				c-0.51-0.5-0.78-1.44-0.78-2.86v-0.65h1.86V184c0,1.09,0.59,1.63,1.85,1.63h4.09c0.71,0,1.12-0.14,1.23-0.41
				c0.05-0.15,0.09-0.93,0.09-2.34v-0.92H86V184.81z M79.82,179.78c0.15,0.08,0.27,0.19,0.36,0.36c0.08,0.16,0.13,0.35,0.14,0.53
				c-0.01,0.19-0.06,0.38-0.14,0.54c-0.09,0.16-0.2,0.27-0.36,0.37c-0.14,0.09-0.31,0.15-0.51,0.16c-0.18-0.01-0.37-0.06-0.53-0.16
				c-0.14-0.09-0.26-0.2-0.36-0.37c-0.1-0.16-0.14-0.35-0.14-0.54c0-0.18,0.04-0.37,0.14-0.53c0.1-0.16,0.22-0.28,0.36-0.36
				c0.16-0.1,0.34-0.15,0.53-0.16C79.5,179.63,79.68,179.69,79.82,179.78z M82.39,179.78c0.15,0.08,0.27,0.19,0.36,0.36
				c0.08,0.16,0.13,0.35,0.14,0.53c-0.01,0.19-0.06,0.38-0.14,0.54c-0.09,0.16-0.2,0.27-0.36,0.37c-0.14,0.09-0.31,0.15-0.51,0.16
				c-0.18-0.01-0.37-0.06-0.53-0.16c-0.14-0.09-0.26-0.2-0.36-0.37c-0.1-0.16-0.14-0.35-0.14-0.54c0-0.18,0.04-0.37,0.14-0.53
				c0.1-0.16,0.22-0.28,0.36-0.36c0.16-0.1,0.34-0.15,0.53-0.16C82.08,179.63,82.25,179.69,82.39,179.78z"/>
			<path class="st0" d="M86.86,187.21v-9.95h1.87v9.95H86.86z"/>
			<path class="st0" d="M92.71,187.53c0,0.44-0.08,0.8-0.22,1.08c-0.14,0.28-0.37,0.48-0.68,0.61c-0.31,0.13-0.72,0.19-1.24,0.19
				c-0.17,0-0.32-0.01-0.45-0.02c-0.13-0.01-0.28-0.04-0.44-0.08c-0.16-0.03-0.33-0.08-0.52-0.14l0.27-1.24l0.22,0.06
				c0.1,0.03,0.18,0.04,0.28,0.05c0.09,0.01,0.17,0.01,0.25,0.01c0.16,0.01,0.28-0.01,0.38-0.05c0.1-0.03,0.16-0.1,0.2-0.18
				c0.05-0.1,0.08-0.23,0.08-0.39v-5.5h1.87V187.53z"/>
			<path class="st0" d="M95.45,184c0,1.09,0.47,1.63,1.47,1.63h0.41v1.58h-0.66c-1.11,0-1.89-0.2-2.31-0.61
				c-0.53-0.5-0.79-1.45-0.79-2.89v-6.44h1.87V184z"/>
			<path class="st0" d="M96.9,187.21v-1.58h4.59v1.58H96.9z"/>
			<path class="st0" d="M101.06,187.21v-1.58h4.59v1.58H101.06z"/>
			<path class="st0" d="M105.21,187.21v-1.58h4.59v1.58H105.21z"/>
			<path class="st0" d="M109.37,187.21v-1.58h4.59v1.58H109.37z"/>
			<path class="st0" d="M113.53,187.21v-1.58h4.59v1.58H113.53z"/>
			<path class="st0" d="M117.69,187.21v-1.58h4.59v1.58H117.69z"/>
			<path class="st0" d="M121.85,187.21v-1.58h4.59v1.58H121.85z"/>
			<path class="st0" d="M126.01,187.21v-1.58h4.59v1.58H126.01z"/>
			<path class="st0" d="M139.48,184.67c0,0.53,0.2,0.83,0.53,0.89c0.11,0.03,0.25,0.04,0.43,0.05c0.09,0.01,0.15,0.01,0.2,0.01h0.64
				v1.58c-1.21,0-2-0.06-2.39-0.19c-0.04,0.01-0.09,0.03-0.14,0.04c-0.24,0.1-0.53,0.15-0.86,0.15c-0.31,0-0.6-0.06-0.88-0.17
				c-0.28-0.11-0.55-0.25-0.81-0.46c-0.13,0.23-0.31,0.39-0.54,0.48c-0.25,0.1-0.54,0.15-0.87,0.15c-0.31,0-0.6-0.05-0.87-0.17
				c-0.24-0.08-0.46-0.2-0.69-0.37c-0.11,0.18-0.27,0.31-0.47,0.39c-0.24,0.1-0.53,0.15-0.88,0.15h-1.69v-1.58h1.17l0.11-0.06
				c0.06-0.04,0.11-0.11,0.12-0.2c0.02-0.1,0.03-0.2,0.03-0.33v-2.06h1.87v2.47c0.05,0.03,0.11,0.06,0.18,0.1
				c0.13,0.05,0.26,0.09,0.4,0.1c0.14,0,0.24-0.02,0.3-0.06c0.06-0.05,0.11-0.12,0.13-0.2c0.01-0.08,0.02-0.19,0.02-0.33v-2.46h1.86
				v2.75l0.04,0.03c0.09,0.06,0.2,0.12,0.35,0.18c0.13,0.05,0.26,0.09,0.4,0.1c0.13,0,0.23-0.02,0.29-0.06
				c0.06-0.05,0.11-0.12,0.14-0.2c0.01-0.08,0.01-0.19,0.01-0.33v-3.08h1.87V184.67z M134.63,178.93c0.15,0.08,0.27,0.19,0.36,0.36
				c0.08,0.16,0.13,0.34,0.14,0.53c-0.01,0.19-0.06,0.38-0.14,0.54c-0.09,0.16-0.2,0.27-0.36,0.37c-0.14,0.09-0.31,0.15-0.51,0.16
				c-0.18-0.01-0.37-0.06-0.53-0.16c-0.14-0.09-0.26-0.2-0.36-0.37c-0.1-0.16-0.14-0.34-0.14-0.54c0-0.18,0.04-0.37,0.14-0.53
				c0.1-0.16,0.22-0.28,0.36-0.36c0.16-0.1,0.34-0.15,0.53-0.16C134.32,178.78,134.49,178.84,134.63,178.93z M135.92,176.66
				c0.15,0.08,0.27,0.19,0.36,0.36c0.08,0.16,0.13,0.34,0.14,0.53c-0.01,0.19-0.06,0.38-0.14,0.54c-0.09,0.16-0.2,0.27-0.36,0.37
				c-0.14,0.09-0.31,0.15-0.51,0.16c-0.18-0.01-0.37-0.06-0.53-0.16c-0.14-0.09-0.26-0.2-0.36-0.37c-0.1-0.16-0.14-0.34-0.14-0.54
				c0-0.18,0.04-0.37,0.14-0.53c0.1-0.16,0.22-0.28,0.36-0.36c0.16-0.1,0.34-0.15,0.53-0.16
				C135.6,176.51,135.78,176.56,135.92,176.66z M137.21,178.93c0.15,0.08,0.27,0.19,0.36,0.36c0.08,0.16,0.13,0.34,0.14,0.53
				c-0.01,0.19-0.06,0.38-0.14,0.54c-0.09,0.16-0.2,0.27-0.36,0.37c-0.14,0.09-0.31,0.15-0.51,0.16c-0.18-0.01-0.37-0.06-0.53-0.16
				c-0.14-0.09-0.26-0.2-0.36-0.37c-0.1-0.16-0.14-0.34-0.14-0.54c0-0.18,0.04-0.37,0.14-0.53c0.1-0.16,0.22-0.28,0.36-0.36
				c0.16-0.1,0.34-0.15,0.53-0.16C136.9,178.78,137.07,178.84,137.21,178.93z"/>
			<path class="st0" d="M145.98,182.88c0,0.19-0.01,0.5-0.01,0.91v0.72c0,0.37,0.04,0.63,0.12,0.77c0.08,0.16,0.22,0.26,0.42,0.3
				c0.12,0.02,0.26,0.05,0.44,0.05h0.83v1.58c-1.41,0-2.33-0.12-2.74-0.36c-0.4,0.24-2.77,0.36-4.19,0.36v-1.58h2.28
				c0.18,0,0.33-0.03,0.44-0.05c0.2-0.04,0.35-0.14,0.42-0.3c0.08-0.14,0.12-0.4,0.12-0.77v-2.54h1.86V182.88z M143.54,178.36
				c0.15,0.08,0.27,0.19,0.36,0.36c0.08,0.16,0.13,0.35,0.14,0.53c-0.01,0.19-0.06,0.38-0.14,0.54c-0.09,0.16-0.2,0.27-0.36,0.37
				c-0.14,0.09-0.31,0.15-0.51,0.16c-0.18-0.01-0.37-0.06-0.53-0.16c-0.14-0.09-0.26-0.2-0.36-0.37c-0.1-0.16-0.14-0.35-0.14-0.54
				c0-0.18,0.04-0.37,0.14-0.53c0.1-0.16,0.22-0.28,0.36-0.36c0.16-0.1,0.34-0.15,0.53-0.16
				C143.23,178.21,143.4,178.26,143.54,178.36z M146.12,178.36c0.15,0.08,0.27,0.19,0.36,0.36c0.08,0.16,0.13,0.35,0.14,0.53
				c-0.01,0.19-0.06,0.38-0.14,0.54c-0.09,0.16-0.2,0.27-0.36,0.37c-0.14,0.09-0.31,0.15-0.51,0.16c-0.18-0.01-0.37-0.06-0.53-0.16
				c-0.14-0.09-0.26-0.2-0.36-0.37c-0.1-0.16-0.14-0.35-0.14-0.54c0-0.18,0.04-0.37,0.14-0.53c0.1-0.16,0.22-0.28,0.36-0.36
				c0.16-0.1,0.34-0.15,0.53-0.16C145.81,178.21,145.98,178.26,146.12,178.36z"/>
			<path class="st0" d="M156.67,185.56c0,0.43-0.06,0.76-0.19,1c-0.11,0.25-0.28,0.41-0.53,0.51c-0.25,0.1-0.54,0.14-0.88,0.14
				c-0.29,0-0.58-0.05-0.87-0.16c-0.28-0.1-0.55-0.25-0.82-0.46c-0.11,0.23-0.28,0.39-0.53,0.48c-0.23,0.1-0.52,0.14-0.86,0.14
				c-0.3,0-0.59-0.05-0.88-0.16c-0.23-0.08-0.46-0.2-0.69-0.37c-0.11,0.18-0.27,0.3-0.47,0.39c-0.23,0.09-0.52,0.14-0.86,0.14h-1.72
				v-1.58h1.19c0.04-0.03,0.09-0.05,0.12-0.06c0.05-0.04,0.09-0.11,0.12-0.2c0.01-0.1,0.02-0.2,0.02-0.33v-2.06h1.86v2.47
				c0.06,0.03,0.13,0.06,0.19,0.09c0.14,0.06,0.28,0.1,0.42,0.11c0.13,0,0.23-0.02,0.28-0.06c0.08-0.05,0.12-0.12,0.13-0.2
				c0.01-0.08,0.02-0.19,0.02-0.33v-2.46h1.87v2.75l0.03,0.03c0.1,0.05,0.2,0.12,0.33,0.17c0.14,0.06,0.27,0.1,0.41,0.11
				c0.14,0,0.25-0.02,0.3-0.06c0.05-0.05,0.1-0.12,0.12-0.2c0.01-0.08,0.02-0.19,0.02-0.33v-3.08h1.88V185.56z"/>
			<path class="st0" d="M162.4,184c0,1.09,0.47,1.63,1.47,1.63h0.29v1.58h-0.54c-1,0-1.72-0.16-2.17-0.5
				c-0.44,0.33-1.15,0.5-2.13,0.5h-1.31l-0.47-1.58h1.13c1.26,0,1.86-0.54,1.86-1.62v-6.76h1.87V184z M157.65,184.88v-7.65h1.88
				v7.65H157.65z"/>
			<path class="st0" d="M168.62,183.71c0,1.43-0.26,2.39-0.79,2.89c-0.42,0.41-1.2,0.61-2.31,0.61h-1.8v-1.58h1.13
				c1.27,0,1.89-0.54,1.89-1.63v-6.8h1.87V183.71z"/>
			<path class="st0" d="M173.64,184.65c-0.05,0.14-0.12,0.3-0.17,0.48c-0.05,0.18-0.1,0.39-0.14,0.64
				c-0.04,0.23-0.06,0.46-0.08,0.73c0,0.27,0.04,0.52,0.12,0.75c0.04,0.2,0.14,0.36,0.28,0.45c0.14,0.1,0.77,0.15,1.89,0.15h4.92
				c-0.01-0.44-0.44-0.66-1.29-0.66h-1.86c-0.82,0-1.19-0.53-1.1-1.58h7.28v1.58h-1.36c0.08,0.2,0.11,0.42,0.11,0.66v0.03
				c0.01,0.02-0.01,0.52-0.06,1.49h-7.36c-0.6,0-1.08-0.05-1.41-0.15c-0.38-0.12-0.66-0.28-0.86-0.48c-0.2-0.22-0.35-0.45-0.44-0.72
				c-0.09-0.27-0.14-0.57-0.16-0.88c-0.01-0.28-0.02-0.48-0.02-0.6c0.01-0.4,0.04-0.79,0.11-1.15c0.06-0.38,0.15-0.71,0.27-1.01
				L173.64,184.65z"/>
			<path class="st0" d="M183.07,187.21v-1.58h4.59v1.58H183.07z"/>
			<path class="st0" d="M192.12,183.71c0,1.43-0.26,2.39-0.79,2.89c-0.42,0.41-1.2,0.61-2.31,0.61h-1.8v-1.58h1.13
				c1.27,0,1.89-0.54,1.89-1.63v-6.8h1.87V183.71z"/>
			<path class="st0" d="M196.66,182c0.34,0.02,0.67,0.05,0.98,0.09c0.27,0.03,0.54,0.08,0.82,0.13v4.99
				c-0.04,0.27-0.11,0.52-0.17,0.72c-0.13,0.38-0.28,0.65-0.48,0.85c-0.22,0.22-0.45,0.37-0.73,0.45c-0.27,0.09-0.56,0.14-0.87,0.16
				c-0.32,0.02-0.65,0.03-0.98,0.03c-0.42-0.01-0.8-0.05-1.15-0.12c-0.39-0.08-0.73-0.15-1.03-0.27l0.27-1.36
				c0.14,0.05,0.31,0.11,0.52,0.17c0.18,0.05,0.39,0.1,0.63,0.14c0.23,0.03,0.47,0.06,0.74,0.06c0.33,0.01,0.6-0.03,0.82-0.09
				c0.2-0.05,0.37-0.14,0.46-0.28c0.1-0.14,0.14-0.32,0.14-0.56v-0.35c-0.13,0.1-0.26,0.18-0.39,0.24
				c-0.13,0.06-0.29,0.11-0.48,0.14c-0.18,0.03-0.41,0.04-0.69,0.04c-0.28,0-0.54-0.04-0.78-0.14c-0.25-0.1-0.45-0.25-0.66-0.47
				c-0.19-0.2-0.36-0.47-0.46-0.81c-0.12-0.35-0.16-0.77-0.16-1.26c0-0.55,0.1-1.01,0.3-1.39c0.2-0.38,0.51-0.67,0.89-0.87
				c0.39-0.2,0.86-0.3,1.42-0.3C195.95,181.96,196.3,181.97,196.66,182z M195.3,183.32c-0.13,0.06-0.23,0.19-0.3,0.38
				c-0.08,0.18-0.11,0.45-0.11,0.81c0,0.35,0.03,0.63,0.09,0.83c0.05,0.2,0.13,0.37,0.23,0.46c0.12,0.09,0.26,0.13,0.42,0.13
				c0.11,0,0.22-0.01,0.33-0.03c0.11-0.02,0.2-0.06,0.3-0.14c0.1-0.08,0.18-0.18,0.24-0.35c0.06-0.14,0.1-0.34,0.1-0.6v-1.47
				c-0.13-0.03-0.26-0.06-0.39-0.09c-0.12-0.01-0.25-0.02-0.39-0.02C195.61,183.22,195.44,183.25,195.3,183.32z"/>
			<path class="st0" d="M204.19,183.71c0,1.42-0.27,2.37-0.79,2.87c-0.43,0.41-1.19,0.64-2.3,0.64h-1.31l-0.47-1.58h1.13
				c1.26,0,1.86-0.54,1.86-1.62v-6.76h1.87V183.71z M200.99,174.43l0.2,0.02c0.05,0.02,0.12,0.04,0.18,0.05l-0.13,0.53
				c-0.05-0.03-0.11-0.05-0.16-0.06c-0.05-0.02-0.13-0.03-0.2-0.03c-0.09,0-0.16,0.01-0.22,0.04c-0.08,0.02-0.13,0.04-0.16,0.08
				c-0.03,0.05-0.04,0.11-0.05,0.16s-0.02,0.12-0.02,0.17c0,0.1,0.02,0.18,0.05,0.26c0.01,0.06,0.06,0.11,0.15,0.14
				c0.08,0.04,0.17,0.06,0.29,0.06c0.05,0,0.11-0.01,0.16-0.02l0.25-0.03l0.14-0.03l-0.13,0.52l-0.57,0.08c-0.32,0-0.87,0.02-1.38,0
				v-0.6l0.39-0.04c-0.02-0.1-0.03-0.2-0.03-0.35c0-0.1,0.01-0.2,0.04-0.32c0.03-0.12,0.1-0.23,0.17-0.32
				c0.09-0.09,0.19-0.16,0.31-0.22c0.12-0.06,0.28-0.1,0.47-0.1C200.83,174.41,200.9,174.42,200.99,174.43z M199.44,184.88v-7.65
				h1.88v7.65H199.44z"/>
			<path class="st0" d="M205.05,187.21v-9.95h1.87v9.95H205.05z"/>
			<path class="st0" d="M217.06,185.62v1.58h-2.59v-0.41c-0.13,0.23-0.5,0.38-1.09,0.43c-0.63,0.06-1.21-0.01-1.74-0.24
				c-0.69-0.29-1.13-0.85-1.33-1.69c-0.18-0.79-0.1-1.52,0.26-2.2c0.2-0.39,0.51-0.67,0.91-0.87c0.81-0.41,2.34-0.43,4.59-0.05v3.45
				H217.06z M214.45,183.31c-1.62-0.33-2.44,0.05-2.48,1.17c-0.02,0.5,0.1,0.88,0.37,1.17c0.23,0.25,0.52,0.37,0.87,0.37
				c0.33,0,0.63-0.11,0.87-0.32c0.27-0.24,0.37-0.54,0.37-0.92V183.31z"/>
			<path class="st0" d="M216.63,187.21v-1.58h4.59v1.58H216.63z"/>
			<path class="st0" d="M220.79,187.21v-1.58h4.59v1.58H220.79z"/>
			<path class="st0" d="M224.95,187.21v-1.58h4.59v1.58H224.95z"/>
			<path class="st0" d="M232.77,184.81c0,1.11-0.39,1.8-1.08,2.11c-0.4,0.18-1.26,0.29-2.59,0.29v-1.58c0.52,0,0.83-0.01,0.95-0.02
				c0.46-0.02,0.73-0.19,0.81-0.52c0.03-0.15,0.05-0.88,0.05-2.21v-0.92h1.85V184.81z M231.7,188.53c0.15,0.08,0.27,0.19,0.36,0.36
				c0.08,0.16,0.13,0.35,0.14,0.53c-0.01,0.19-0.06,0.38-0.14,0.54c-0.09,0.16-0.2,0.27-0.36,0.37c-0.14,0.09-0.31,0.15-0.51,0.16
				c-0.18-0.01-0.37-0.06-0.53-0.16c-0.14-0.09-0.26-0.2-0.36-0.37c-0.1-0.16-0.14-0.35-0.14-0.54c0-0.18,0.04-0.37,0.14-0.53
				c0.1-0.16,0.22-0.28,0.36-0.36c0.16-0.1,0.34-0.15,0.53-0.16C231.39,188.38,231.56,188.44,231.7,188.53z"/>
			<path class="st0" d="M235.51,184c0,1.09,0.47,1.63,1.47,1.63h0.41v1.58h-0.66c-1.11,0-1.89-0.2-2.31-0.61
				c-0.53-0.5-0.79-1.45-0.79-2.89v-6.44h1.87V184z"/>
			<path class="st0" d="M244.34,187.21h-7.39v-1.58h4.74l-0.02-1.05v-0.33c0-0.24-0.05-0.42-0.15-0.56c-0.1-0.14-0.25-0.24-0.46-0.3
				c-0.2-0.05-0.47-0.08-0.81-0.06c-0.27,0-0.53,0.01-0.76,0.04c-0.24,0.05-0.45,0.1-0.64,0.15c-0.19,0.05-0.37,0.12-0.51,0.18
				l-0.26-1.37c0.29-0.12,0.64-0.19,1.02-0.27c0.37-0.06,0.75-0.11,1.16-0.12c0.33,0,0.66,0.01,0.97,0.02
				c0.31,0.02,0.61,0.08,0.91,0.17c0.27,0.1,0.52,0.25,0.72,0.45c0.2,0.2,0.38,0.48,0.5,0.86c0.12,0.38,0.18,0.86,0.18,1.43
				c0,0.87,0.09,1.43,0.27,1.67C244.13,186.96,244.3,187.18,244.34,187.21z M241.48,188.89c0.08,0.16,0.13,0.35,0.14,0.53
				c-0.01,0.19-0.06,0.38-0.14,0.54c-0.09,0.16-0.2,0.27-0.36,0.37c-0.14,0.09-0.31,0.15-0.51,0.16c-0.18-0.01-0.37-0.06-0.53-0.16
				c-0.14-0.09-0.26-0.2-0.36-0.37c-0.1-0.16-0.14-0.35-0.14-0.54c0-0.18,0.04-0.37,0.14-0.53c0.1-0.16,0.22-0.28,0.36-0.36
				c0.16-0.1,0.34-0.15,0.53-0.16c0.19,0.01,0.37,0.06,0.51,0.16C241.27,188.61,241.39,188.73,241.48,188.89z"/>
			<path class="st0" d="M250.08,183.71c0,1.42-0.27,2.37-0.79,2.87c-0.43,0.41-1.19,0.64-2.3,0.64h-1.31l-0.47-1.58h1.13
				c1.26,0,1.86-0.54,1.86-1.62v-6.76h1.87V183.71z M246.87,188.13l0.2,0.02c0.05,0.02,0.12,0.04,0.18,0.05l-0.13,0.53
				c-0.05-0.03-0.11-0.05-0.16-0.06c-0.05-0.02-0.13-0.03-0.2-0.03c-0.09,0-0.16,0.01-0.22,0.04c-0.08,0.02-0.13,0.04-0.16,0.08
				c-0.03,0.05-0.04,0.11-0.05,0.16c-0.01,0.05-0.02,0.12-0.02,0.17c0,0.1,0.02,0.18,0.05,0.26c0.01,0.06,0.06,0.11,0.15,0.14
				c0.08,0.04,0.17,0.06,0.29,0.06c0.05,0,0.11-0.01,0.16-0.02l0.25-0.03l0.14-0.03l-0.13,0.52l-0.57,0.08c-0.32,0-0.87,0.02-1.38,0
				v-0.6l0.39-0.04c-0.02-0.1-0.03-0.2-0.03-0.35c0-0.1,0.01-0.2,0.04-0.32c0.03-0.12,0.1-0.23,0.17-0.32
				c0.09-0.09,0.19-0.16,0.31-0.22c0.12-0.06,0.28-0.1,0.47-0.1C246.71,188.11,246.79,188.12,246.87,188.13z M245.32,184.88v-7.65
				h1.88v7.65H245.32z"/>
			<path class="st0" d="M250.94,187.21v-9.95h1.87v9.95H250.94z"/>
		</g>
	</g>
</g>
</svg>
